<?xml version="1.0" encoding="utf-8"?>
<svg
  width="1200"
  height="630"
  viewBox="0 0 1200 630"
  xmlns="http://www.w3.org/2000/svg">
  <g transform="translate(420 135) scale(2)" fill="#ffffff">
    <path d="M71,148.3v-18.6c-7.4-1.4-13-7.9-13-15.7c0-3.2,1-6.3,2.6-8.8L45,93.7l-15.6,11.5c1.7,2.5,2.6,5.5,2.6,8.8c0,3.3-1,6.3-2.7,8.8l35.5,28C66.7,149.6,68.8,148.7,71,148.3z M77,148.3c2.2,0.4,4.3,1.3,6.1,2.6l35.5-28c-1.7-2.5-2.7-5.6-2.7-8.8c0-3.2,1-6.3,2.6-8.8L103,93.7l-15.6,11.5c1.7,2.5,2.6,5.5,2.6,8.8c0,7.8-5.6,14.3-13,15.7V148.3z M87.3,155.2c1.7,2.5,2.7,5.6,2.7,8.8c0,8.8-7.2,16-16,16s-16-7.2-16-16c0-3.3,1-6.3,2.7-8.8l-35.5-28c-2.6,1.8-5.7,2.9-9.1,2.9c-8.8,0-16-7.2-16-16c0-7.8,5.6-14.3,13-15.7V81.7C5.6,80.3,0,73.8,0,66c0-8.8,7.2-16,16-16c3.4,0,6.5,1.1,9.1,2.9l35.5-28C59,22.3,58,19.3,58,16c0-8.8,7.2-16,16-16s16,7.2,16,16c0,3.3-1,6.3-2.7,8.8l35.5,28c2.6-1.8,5.7-2.9,9.1-2.9c8.8,0,16,7.2,16,16c0,7.8-5.6,14.3-13,15.7v16.6c7.4,1.4,13,7.9,13,15.7c0,8.8-7.2,16-16,16c-3.4,0-6.5-1.1-9.1-2.9L87.3,155.2z M25.2,100.9L39.9,90L25.2,79.1c-1.8,1.3-3.9,2.2-6.2,2.6v16.6C21.3,98.7,23.4,99.6,25.2,100.9z M29.4,74.8L45,86.3l15.6-11.5C59,72.3,58,69.2,58,66c0-7.8,5.6-14.3,13-15.7V31.7c-2.2-0.4-4.3-1.3-6.1-2.6l-35.5,28C31,59.7,32,62.7,32,66C32,69.2,31,72.3,29.4,74.8z M122.8,100.9c1.8-1.3,3.9-2.2,6.2-2.6V81.7c-2.3-0.4-4.4-1.3-6.2-2.6L108.1,90L122.8,100.9z M118.7,57.2l-35.5-28c-1.8,1.3-3.9,2.2-6.1,2.6v18.6c7.4,1.4,13,7.9,13,15.7c0,3.2-1,6.3-2.6,8.8L103,86.3l15.6-11.5c-1.7-2.5-2.6-5.5-2.6-8.8C116,62.7,117,59.7,118.7,57.2z M64.8,100.9c2.6-1.8,5.8-2.9,9.2-2.9s6.6,1.1,9.2,2.9L97.9,90L83.2,79.1C80.6,80.9,77.4,82,74,82s-6.6-1.1-9.2-2.9L50.1,90L64.8,100.9z M74,76c5.5,0,10-4.5,10-10s-4.5-10-10-10s-10,4.5-10,10S68.5,76,74,76z M74,124c5.5,0,10-4.5,10-10c0-5.5-4.5-10-10-10s-10,4.5-10,10C64,119.5,68.5,124,74,124z M132,76c5.5,0,10-4.5,10-10s-4.5-10-10-10s-10,4.5-10,10S126.5,76,132,76z M132,124c5.5,0,10-4.5,10-10c0-5.5-4.5-10-10-10s-10,4.5-10,10C122,119.5,126.5,124,132,124z M16,76c5.5,0,10-4.5,10-10s-4.5-10-10-10S6,60.5,6,66S10.5,76,16,76z M16,124c5.5,0,10-4.5,10-10c0-5.5-4.5-10-10-10s-10,4.5-10,10C6,119.5,10.5,124,16,124z M74,174c5.5,0,10-4.5,10-10s-4.5-10-10-10s-10,4.5-10,10S68.5,174,74,174z M74,26c5.5,0,10-4.5,10-10S79.5,6,74,6s-10,4.5-10,10S68.5,26,74,26z" />
  </g>
</svg>
