<?xml version="1.0" encoding="utf-8"?>
<!--
 Licensed to the Apache Software Foundation (ASF) under one or more
 contributor license agreements.  See the NOTICE file distributed with
 this work for additional information regarding copyright ownership.
 The ASF licenses this file to You under the Apache License, Version 2.0
 (the "License"); you may not use this file except in compliance with
 the License.  You may obtain a copy of the License at

     http://www.apache.org/licenses/LICENSE-2.0

 Unless required by applicable law or agreed to in writing, software
 distributed under the License is distributed on an "AS IS" BASIS,
 WITHOUT WARRANTIES OR CONDITIONS OF ANY KIND, either express or implied.
 See the License for the specific language governing permissions and
 limitations under the License.
-->
<!-- Generator: Adobe Illustrator 22.0.0, SVG Export Plug-In . SVG Version: 6.00 Build 0)  -->
<svg version="1.1" id="Layer_1" xmlns="http://www.w3.org/2000/svg" xmlns:xlink="http://www.w3.org/1999/xlink" x="0px" y="0px"
	 viewBox="0 0 747.9 180" style="enable-background:new 0 0 747.9 180;" xml:space="preserve">
<style type="text/css">
	.st0{fill:#212529;}
</style>
<g>
	<path class="st0" d="M272.2,119.8v-46l-20,51c-0.7,1.7-2.3,2.9-4.2,2.9s-3.5-1.2-4.2-2.9l-20-51v46c0,4.2-3.4,7.9-7.7,7.9
		c-4.4,0-8-3.7-8-7.9V65.1c0-7.1,5.8-12.8,12.8-12.8c5.5,0,10.2,3.4,12.1,8.3l15,38.5l15.2-38.5c1.8-4.9,6.5-8.3,11.9-8.3
		c7.2,0,12.9,5.8,12.9,12.8v54.6c0,4.2-3.5,7.9-8,7.9C275.7,127.6,272.2,124,272.2,119.8z"/>
	<path class="st0" d="M381.7,119.6c0,4.4-3.6,8-8.1,8c-3.4,0-6.4-2.2-7.4-5.3l-3-8.6H330l-3,8.6c-1,3.1-4.1,5.3-7.5,5.3
		c-4.4,0-8-3.5-8-8c0-1,0.2-2,0.6-2.8l21.6-55.7c2-5.2,7-8.8,12.9-8.8c5.9,0,11,3.7,12.9,8.8l21.5,55.7
		C381.3,117.7,381.7,118.6,381.7,119.6z M358.3,100.1l-11.7-33.4l-11.7,33.4H358.3z"/>
	<path class="st0" d="M455.8,119.8V95.9h-34.8v23.9c0,4.2-3.4,7.9-7.7,7.9c-4.4,0-8-3.7-8-7.9V60.1c0-4.3,3.5-7.9,7.9-7.9
		c4.4,0,7.9,3.5,7.9,7.9V82h34.8V60.1c0-4.3,3.5-7.9,8-7.9c4.3,0,7.9,3.5,7.9,7.9v59.6c0,4.2-3.5,7.9-8,7.9
		C459.3,127.6,455.8,124,455.8,119.8z"/>
	<path class="st0" d="M534.8,51.8c22.3,0,38.6,15.9,38.6,38.2c0,22.2-16.3,38.2-38.6,38.2c-22.2,0-38.5-15.9-38.5-38.2
		C496.4,67.8,512.6,51.8,534.8,51.8z M534.8,65.8c-13.6,0-22.3,10.4-22.3,24.2c0,13.7,8.7,24.2,22.3,24.2s22.5-10.5,22.5-24.2
		C557.3,76.2,548.5,65.8,534.8,65.8z"/>
	<path class="st0" d="M598.3,60.2c0-4.4,3.5-8,8-8c4.4,0,8,3.5,8,8v36.6c0,10.3,5.6,17.4,17.1,17.4c11.3,0,16.9-7.1,16.9-17.4V60.2
		c0-4.4,3.5-8,8-8c4.4,0,8,3.5,8,8v37.1c0,18.4-10.5,30.9-32.9,30.9c-22.6,0-33.1-12.6-33.1-30.8V60.2z"/>
	<path class="st0" d="M709.7,119.8V66.9h-15.4c-3.8,0-7-3.1-7-6.9c0-3.9,3.2-7,7-7h46.6c3.8,0,7,3.1,7,7c0,3.8-3.2,6.9-7,6.9h-15.4
		v52.9c0,4.2-3.5,7.9-7.9,7.9C713.3,127.6,709.7,124,709.7,119.8z"/>
</g>
<g>
	<g>
		<path class="st0" d="M71,148.3v-18.6c-7.4-1.4-13-7.9-13-15.7c0-3.2,1-6.3,2.6-8.8L45,93.7l-15.6,11.5c1.7,2.5,2.6,5.5,2.6,8.8
			c0,3.3-1,6.3-2.7,8.8l35.5,28C66.7,149.6,68.8,148.7,71,148.3z M77,148.3c2.2,0.4,4.3,1.3,6.1,2.6l35.5-28
			c-1.7-2.5-2.7-5.6-2.7-8.8c0-3.2,1-6.3,2.6-8.8L103,93.7l-15.6,11.5c1.7,2.5,2.6,5.5,2.6,8.8c0,7.8-5.6,14.3-13,15.7V148.3z
			 M87.3,155.2c1.7,2.5,2.7,5.6,2.7,8.8c0,8.8-7.2,16-16,16s-16-7.2-16-16c0-3.3,1-6.3,2.7-8.8l-35.5-28c-2.6,1.8-5.7,2.9-9.1,2.9
			c-8.8,0-16-7.2-16-16c0-7.8,5.6-14.3,13-15.7V81.7C5.6,80.3,0,73.8,0,66c0-8.8,7.2-16,16-16c3.4,0,6.5,1.1,9.1,2.9l35.5-28
			C59,22.3,58,19.3,58,16c0-8.8,7.2-16,16-16s16,7.2,16,16c0,3.3-1,6.3-2.7,8.8l35.5,28c2.6-1.8,5.7-2.9,9.1-2.9c8.8,0,16,7.2,16,16
			c0,7.8-5.6,14.3-13,15.7v16.6c7.4,1.4,13,7.9,13,15.7c0,8.8-7.2,16-16,16c-3.4,0-6.5-1.1-9.1-2.9L87.3,155.2z M25.2,100.9L39.9,90
			L25.2,79.1c-1.8,1.3-3.9,2.2-6.2,2.6v16.6C21.3,98.7,23.4,99.6,25.2,100.9z M29.4,74.8L45,86.3l15.6-11.5C59,72.3,58,69.2,58,66
			c0-7.8,5.6-14.3,13-15.7V31.7c-2.2-0.4-4.3-1.3-6.1-2.6l-35.5,28C31,59.7,32,62.7,32,66C32,69.2,31,72.3,29.4,74.8z M122.8,100.9
			c1.8-1.3,3.9-2.2,6.2-2.6V81.7c-2.3-0.4-4.4-1.3-6.2-2.6L108.1,90L122.8,100.9z M118.7,57.2l-35.5-28c-1.8,1.3-3.9,2.2-6.1,2.6
			v18.6c7.4,1.4,13,7.9,13,15.7c0,3.2-1,6.3-2.6,8.8L103,86.3l15.6-11.5c-1.7-2.5-2.6-5.5-2.6-8.8C116,62.7,117,59.7,118.7,57.2z
			 M64.8,100.9c2.6-1.8,5.8-2.9,9.2-2.9s6.6,1.1,9.2,2.9L97.9,90L83.2,79.1C80.6,80.9,77.4,82,74,82s-6.6-1.1-9.2-2.9L50.1,90
			L64.8,100.9z M74,76c5.5,0,10-4.5,10-10s-4.5-10-10-10s-10,4.5-10,10S68.5,76,74,76z M74,124c5.5,0,10-4.5,10-10
			c0-5.5-4.5-10-10-10s-10,4.5-10,10C64,119.5,68.5,124,74,124z M132,76c5.5,0,10-4.5,10-10s-4.5-10-10-10s-10,4.5-10,10
			S126.5,76,132,76z M132,124c5.5,0,10-4.5,10-10c0-5.5-4.5-10-10-10s-10,4.5-10,10C122,119.5,126.5,124,132,124z M16,76
			c5.5,0,10-4.5,10-10s-4.5-10-10-10S6,60.5,6,66S10.5,76,16,76z M16,124c5.5,0,10-4.5,10-10c0-5.5-4.5-10-10-10s-10,4.5-10,10
			C6,119.5,10.5,124,16,124z M74,174c5.5,0,10-4.5,10-10s-4.5-10-10-10s-10,4.5-10,10S68.5,174,74,174z M74,26c5.5,0,10-4.5,10-10
			S79.5,6,74,6s-10,4.5-10,10S68.5,26,74,26z"/>
	</g>
</g>
</svg>
